<svg version="1.1" xmlns="http://www.w3.org/2000/svg" viewBox="0 0 949.3333129882812 1071.3333435058594" width="949.3333129882812" height="1071.3333435058594">
  <!-- svg-source:excalidraw -->
  
  <defs>
    <style class="style-fonts">
      @font-face {
        font-family: "Virgil";
        src: url("https://excalidraw.com/Virgil.woff2");
      }
      @font-face {
        font-family: "Cascadia";
        src: url("https://excalidraw.com/Cascadia.woff2");
      }
      @font-face {
        font-family: "Assistant";
        src: url("https://excalidraw.com/Assistant-Regular.woff2");
      }
    </style>
    
  </defs>
  <rect x="0" y="0" width="949.3333129882812" height="1071.3333435058594" fill="#ffffff"></rect><g stroke-linecap="round" transform="translate(10 234.66665649414062) rotate(0 464.6666564941406 261.00001525878906)"><path d="M32 0 C363.72 -2.84, 696.58 -2.44, 897.33 0 M32 0 C233.17 -1.3, 433.68 -1.2, 897.33 0 M897.33 0 C917.32 0.8, 930.05 12.15, 929.33 32 M897.33 0 C917.17 -1.51, 931.11 10.64, 929.33 32 M929.33 32 C931.14 195.46, 930.1 358.28, 929.33 490 M929.33 32 C930.26 207.92, 929.96 384.4, 929.33 490 M929.33 490 C931.21 511.4, 917.84 520.35, 897.33 522 M929.33 490 C931.59 510.38, 917.13 521.77, 897.33 522 M897.33 522 C582.79 521.15, 268.49 521.18, 32 522 M897.33 522 C708.97 520.54, 520.06 521.01, 32 522 M32 522 C10.27 521.23, -0.03 509.39, 0 490 M32 522 C10.72 521.81, -1.57 509.81, 0 490 M0 490 C0.38 382.33, 0.85 275.14, 0 32 M0 490 C-1.18 367.05, -0.63 244.03, 0 32 M0 32 C0.66 9.13, 11.97 -0.91, 32 0 M0 32 C0.22 10.5, 12.18 -1.33, 32 0" stroke="#1e1e1e" stroke-width="2" fill="none"></path></g><g transform="translate(320.54071044921875 716.6666870117188) rotate(0 154.12594604492188 17.5)"><text x="154.12594604492188" y="0" font-family="Virgil, Segoe UI Emoji" font-size="28px" fill="#1e1e1e" text-anchor="middle" style="white-space: pre;" direction="ltr" dominant-baseline="text-before-edge">Elastic Stack Dev Kit</text></g><g stroke-linecap="round" transform="translate(84.16664123535156 571.6146011352539) rotate(0 135.33334350585938 43.33332824707031)"><path d="M21.67 0 C98.96 3.92, 171.15 0.29, 249 0 C265.56 -2.62, 272.19 9.73, 270.67 21.67 C268.57 35.52, 273.32 55.85, 270.67 65 C270.78 79.9, 263.41 83.39, 249 86.67 C163.26 82.49, 77.8 87.92, 21.67 86.67 C9.08 86.46, 0.74 79.08, 0 65 C-2.79 52.43, 3.08 34.48, 0 21.67 C-0.65 6.25, 9.1 -2.01, 21.67 0" stroke="none" stroke-width="0" fill="#b2f2bb"></path><path d="M21.67 0 C81.68 -1.76, 141.18 -0.77, 249 0 M21.67 0 C71.05 -0.14, 118.69 -0.57, 249 0 M249 0 C262.94 0.17, 270.14 8.89, 270.67 21.67 M249 0 C262.27 -1.79, 271.55 7.38, 270.67 21.67 M270.67 21.67 C271.21 36.81, 269.81 49.88, 270.67 65 M270.67 21.67 C270.74 31.2, 270.31 41.28, 270.67 65 M270.67 65 C269.51 78.85, 263.77 86.17, 249 86.67 M270.67 65 C268.96 79.36, 263.9 85.83, 249 86.67 M249 86.67 C194.92 85.19, 142.39 84.24, 21.67 86.67 M249 86.67 C187.9 87.09, 126.31 86.58, 21.67 86.67 M21.67 86.67 C6.81 86.89, -0.72 81.33, 0 65 M21.67 86.67 C9.26 85.6, 1.29 77.66, 0 65 M0 65 C0.25 49.1, -1.91 32.7, 0 21.67 M0 65 C0.19 49.09, 0.82 33.18, 0 21.67 M0 21.67 C1.84 8.37, 7.81 -1.11, 21.67 0 M0 21.67 C0.85 7.07, 5.33 2.26, 21.67 0" stroke="#1e1e1e" stroke-width="2" fill="none"></path></g><g transform="translate(102.08007049560547 602.4479293823242) rotate(0 117.41991424560547 12.5)"><text x="117.41991424560547" y="0" font-family="Virgil, Segoe UI Emoji" font-size="20px" fill="#1e1e1e" text-anchor="middle" style="white-space: pre;" direction="ltr" dominant-baseline="text-before-edge">Elasticsearch RESTAPI</text></g><g stroke-linecap="round" transform="translate(580.1666717529297 567.6145248413086) rotate(0 135.33334350585938 43.33332824707031)"><path d="M21.67 0 C85.27 -0.88, 148.92 0.9, 249 0 C263.17 -2.05, 272.08 10.7, 270.67 21.67 C273.24 34.2, 268.3 48.66, 270.67 65 C270.06 79.71, 263.75 89.68, 249 86.67 C177.89 88.42, 110.43 86.61, 21.67 86.67 C8.43 88.12, 1.73 78.81, 0 65 C0.97 51.09, -3.33 40.01, 0 21.67 C-3.56 7.21, 5.28 1.7, 21.67 0" stroke="none" stroke-width="0" fill="#d0bfff"></path><path d="M21.67 0 C77.3 0.27, 132.88 0.98, 249 0 M21.67 0 C91.88 -0.37, 162.72 -1.08, 249 0 M249 0 C263.95 -0.23, 270.01 7.37, 270.67 21.67 M249 0 C263.13 1.43, 272.3 5.29, 270.67 21.67 M270.67 21.67 C270.6 29.94, 269.95 40.39, 270.67 65 M270.67 21.67 C270.3 35.31, 271.06 47.87, 270.67 65 M270.67 65 C269.21 77.61, 261.68 86.46, 249 86.67 M270.67 65 C269.21 78.47, 261.27 87.79, 249 86.67 M249 86.67 C200.19 89.13, 149.69 88.4, 21.67 86.67 M249 86.67 C158.64 85.79, 68.03 85.64, 21.67 86.67 M21.67 86.67 C6.41 86.99, -1.39 78.29, 0 65 M21.67 86.67 C6.47 85.25, 1.1 80.81, 0 65 M0 65 C-1.61 53.43, -1.86 39.29, 0 21.67 M0 65 C0.05 49.11, -0.23 31.81, 0 21.67 M0 21.67 C-0.22 6.22, 6.92 1.45, 21.67 0 M0 21.67 C1.29 6.37, 7.42 0.84, 21.67 0" stroke="#1e1e1e" stroke-width="2" fill="none"></path></g><g transform="translate(632.8300628662109 598.4478530883789) rotate(0 82.66995239257812 12.5)"><text x="82.66995239257812" y="0" font-family="Virgil, Segoe UI Emoji" font-size="20px" fill="#1e1e1e" text-anchor="middle" style="white-space: pre;" direction="ltr" dominant-baseline="text-before-edge">Kibana RESTAPI</text></g><g stroke-linecap="round" transform="translate(324.66680908203125 355.33331298828125) rotate(0 140.33331298828125 49.666656494140625)"><path d="M24.83 0 C75.46 -3.61, 120.73 -1.44, 255.83 0 C270.44 1.2, 280.7 6.25, 280.67 24.83 C284.19 39.22, 280.37 62.06, 280.67 74.5 C283.69 93.44, 270.59 102.37, 255.83 99.33 C201.64 102, 147.46 97.62, 24.83 99.33 C6.48 97.08, -3.46 93.18, 0 74.5 C-1.18 59.42, 1.85 41.62, 0 24.83 C3.21 6.93, 11.66 -3.33, 24.83 0" stroke="none" stroke-width="0" fill="#a5d8ff"></path><path d="M24.83 0 C74.48 1.22, 128.2 1.17, 255.83 0 M24.83 0 C82.66 1.19, 141.78 2, 255.83 0 M255.83 0 C274.29 1.68, 282.64 6.49, 280.67 24.83 M255.83 0 C270.2 1.35, 281.29 8.8, 280.67 24.83 M280.67 24.83 C279.71 43.11, 280.46 63.68, 280.67 74.5 M280.67 24.83 C281.18 36.91, 280.44 51.11, 280.67 74.5 M280.67 74.5 C279.02 89.47, 271.85 99.59, 255.83 99.33 M280.67 74.5 C282.63 91.15, 271.17 99.33, 255.83 99.33 M255.83 99.33 C178.96 97.65, 102.84 99.3, 24.83 99.33 M255.83 99.33 C168.05 98.31, 79.13 98.47, 24.83 99.33 M24.83 99.33 C6.87 100.31, 0.54 90.02, 0 74.5 M24.83 99.33 C7.98 98.62, 0.85 90.43, 0 74.5 M0 74.5 C1.77 56.67, 1.85 38.61, 0 24.83 M0 74.5 C0.22 56.49, 0.49 38.78, 0 24.83 M0 24.83 C-1.41 9.15, 6.64 1.95, 24.83 0 M0 24.83 C1.03 6.5, 8.94 1.83, 24.83 0" stroke="#1e1e1e" stroke-width="2" fill="none"></path></g><g transform="translate(404.70018005371094 392.4999694824219) rotate(0 60.29994201660156 12.5)"><text x="60.29994201660156" y="0" font-family="Virgil, Segoe UI Emoji" font-size="20px" fill="#1e1e1e" text-anchor="middle" style="white-space: pre;" direction="ltr" dominant-baseline="text-before-edge">Custom func</text></g><g stroke-linecap="round"><g transform="translate(407.33343505859375 458.6666564941406) rotate(0 -56.333343505859375 55)"><path d="M-0.93 -0.58 C-19.84 17.78, -94.52 92.53, -113.2 110.87 M0.78 1.73 C-18.35 19.69, -95.31 91.07, -114.43 109.2" stroke="#1e1e1e" stroke-width="2" fill="none"></path></g><g transform="translate(407.33343505859375 458.6666564941406) rotate(0 -56.333343505859375 55)"><path d="M-100.87 82.44 C-105.98 89.97, -107.9 98.81, -114.43 109.2 M-100.87 82.44 C-104.9 89.81, -107.07 96.63, -114.43 109.2" stroke="#1e1e1e" stroke-width="2" fill="none"></path></g><g transform="translate(407.33343505859375 458.6666564941406) rotate(0 -56.333343505859375 55)"><path d="M-86.84 97.42 C-96.52 100.07, -102.91 104.13, -114.43 109.2 M-86.84 97.42 C-94.46 101.01, -100.22 103.99, -114.43 109.2" stroke="#1e1e1e" stroke-width="2" fill="none"></path></g></g><mask></mask><g stroke-linecap="round"><g transform="translate(552.6668090820312 453.33331298828125) rotate(0 60.56603047517774 54.33332824707031)"><path d="M1.1 0.27 C21.45 18.27, 102.21 91.09, 122.26 109.1 M0.22 -0.64 C20.49 17.51, 101.81 88.85, 121.9 107.21" stroke="#1e1e1e" stroke-width="2" fill="none"></path></g><g transform="translate(552.6668090820312 453.33331298828125) rotate(0 60.56603047517774 54.33332824707031)"><path d="M94.04 96.09 C103.38 101.22, 112.45 103.27, 121.9 107.21 M94.04 96.09 C101.76 98.68, 109.7 102.04, 121.9 107.21" stroke="#1e1e1e" stroke-width="2" fill="none"></path></g><g transform="translate(552.6668090820312 453.33331298828125) rotate(0 60.56603047517774 54.33332824707031)"><path d="M107.71 80.78 C112.88 90.86, 117.64 97.75, 121.9 107.21 M107.71 80.78 C111.71 87.7, 115.91 95.26, 121.9 107.21" stroke="#1e1e1e" stroke-width="2" fill="none"></path></g></g><mask></mask><g stroke-linecap="round"><g transform="translate(213.6648435836064 659.3333129882812) rotate(0 1.2811434680722869 121.99547681315629)"><path d="M-0.69 -1.19 C-0.26 39.28, 1.16 202.94, 1.57 243.85 M1.14 0.81 C2.04 41.99, 3.24 204.49, 3.76 245.32" stroke="#1e1e1e" stroke-width="2" fill="none"></path></g><g transform="translate(213.6648435836064 659.3333129882812) rotate(0 1.2811434680722869 121.99547681315629)"><path d="M-6.78 217.23 C-6.28 221.61, -2.29 227.9, 3.76 245.32 M-6.78 217.23 C-3.31 226.68, 0.25 235.02, 3.76 245.32" stroke="#1e1e1e" stroke-width="2" fill="none"></path></g><g transform="translate(213.6648435836064 659.3333129882812) rotate(0 1.2811434680722869 121.99547681315629)"><path d="M13.74 217.03 C9.88 221.33, 9.5 227.67, 3.76 245.32 M13.74 217.03 C10.56 226.46, 7.46 234.87, 3.76 245.32" stroke="#1e1e1e" stroke-width="2" fill="none"></path></g></g><mask></mask><g stroke-linecap="round"><g transform="translate(719.3335571289062 658.6666564941406) rotate(0 0.6666259765625 123)"><path d="M0.16 0.57 C0.43 41.74, 0.44 206.13, 0.61 247.2 M-1.21 -0.17 C-0.47 40.68, 2.68 204.82, 2.94 245.7" stroke="#1e1e1e" stroke-width="2" fill="none"></path></g><g transform="translate(719.3335571289062 658.6666564941406) rotate(0 0.6666259765625 123)"><path d="M-7.71 217.65 C-4.38 222.55, -1.02 229.63, 2.94 245.7 M-7.71 217.65 C-4.04 229.22, 0.38 239.54, 2.94 245.7" stroke="#1e1e1e" stroke-width="2" fill="none"></path></g><g transform="translate(719.3335571289062 658.6666564941406) rotate(0 0.6666259765625 123)"><path d="M12.81 217.37 C11.66 222.36, 10.54 229.5, 2.94 245.7 M12.81 217.37 C8.68 229.14, 5.3 239.56, 2.94 245.7" stroke="#1e1e1e" stroke-width="2" fill="none"></path></g></g><mask></mask><g stroke-linecap="round" transform="translate(71.33343505859375 910.0000305175781) rotate(0 144.33331298828125 75.66665649414062)"><path d="M142.43 -0.64 C157.94 -1.97, 175 1.99, 190.46 4.87 C205.93 7.74, 222.42 11.33, 235.22 16.62 C248.01 21.91, 258.86 29.11, 267.23 36.61 C275.6 44.11, 282.02 52.98, 285.42 61.63 C288.82 70.28, 290.05 80.21, 287.64 88.5 C285.23 96.8, 278.93 103.96, 270.96 111.38 C262.98 118.81, 252.34 127.25, 239.8 133.06 C227.25 138.88, 211.17 143.29, 195.71 146.27 C180.24 149.25, 163.26 150.76, 147 150.92 C130.75 151.08, 113.8 149.92, 98.17 147.23 C82.55 144.53, 66.09 140.08, 53.24 134.74 C40.4 129.4, 29.5 122.78, 21.12 115.2 C12.75 107.63, 6.2 97.95, 3.02 89.3 C-0.17 80.66, -0.63 71.59, 2.01 63.33 C4.65 55.08, 10.86 47.35, 18.88 39.77 C26.91 32.18, 37.91 23.44, 50.15 17.82 C62.4 12.19, 74.18 8.78, 92.37 6 C110.56 3.22, 145.64 1.74, 159.3 1.14 C172.96 0.54, 174.77 1.37, 174.33 2.41 M154.55 -1.27 C170.02 -2.05, 187.96 2.27, 202.89 5.86 C217.83 9.45, 232.28 14.05, 244.17 20.28 C256.06 26.51, 266.96 35.47, 274.25 43.25 C281.53 51.03, 286.33 58.67, 287.88 66.97 C289.44 75.26, 287.87 84.55, 283.57 93.02 C279.28 101.49, 271.38 110.64, 262.12 117.81 C252.86 124.98, 240.95 131.14, 228.02 136.03 C215.09 140.92, 200.11 144.87, 184.54 147.15 C168.98 149.43, 151.29 150.13, 134.65 149.71 C118.01 149.29, 100.11 148.03, 84.71 144.65 C69.31 141.26, 54.09 135.18, 42.22 129.38 C30.35 123.58, 20.28 117.69, 13.48 109.85 C6.68 102.01, 3.07 91.11, 1.4 82.36 C-0.26 73.61, -0.45 65.72, 3.49 57.37 C7.43 49.02, 15.69 39.32, 25.05 32.24 C34.42 25.17, 46.2 19.85, 59.67 14.93 C73.14 10.01, 90.14 5.19, 105.89 2.72 C121.64 0.25, 145.95 0.28, 154.15 0.09 C162.34 -0.11, 155.18 0.07, 155.05 1.57" stroke="none" stroke-width="0" fill="#b2f2bb"></path><path d="M182.69 2.06 C198.16 3.02, 213.7 8.94, 227.2 13.94 C240.7 18.93, 254.14 24.89, 263.7 32.02 C273.25 39.16, 280.48 48.34, 284.52 56.75 C288.56 65.15, 289.61 73.8, 287.93 82.46 C286.25 91.12, 281.26 100.87, 274.44 108.71 C267.61 116.55, 258.59 123.51, 246.98 129.52 C235.36 135.53, 219.77 141.13, 204.75 144.76 C189.73 148.4, 173.36 150.74, 156.87 151.36 C140.38 151.97, 121.83 150.6, 105.83 148.44 C89.84 146.28, 74.3 143.18, 60.88 138.41 C47.45 133.64, 34.8 127.2, 25.3 119.82 C15.8 112.45, 8.03 102.72, 3.88 94.17 C-0.26 85.62, -1.17 76.86, 0.44 68.53 C2.05 60.2, 6.52 52.09, 13.54 44.19 C20.56 36.3, 30.84 27.4, 42.57 21.17 C54.29 14.93, 69.09 10.26, 83.91 6.8 C98.74 3.33, 113.79 0.96, 131.5 0.36 C149.21 -0.24, 179.17 1.94, 190.19 3.19 C201.2 4.43, 198.36 6.49, 197.61 7.83 M95.25 5.76 C108.88 1.98, 127.42 0.77, 143.82 0.35 C160.23 -0.07, 178.09 0.32, 193.67 3.24 C209.25 6.16, 224.64 12.24, 237.31 17.89 C249.99 23.55, 261.38 29.88, 269.72 37.18 C278.06 44.47, 284.47 53.19, 287.37 61.65 C290.27 70.11, 289.87 79.51, 287.1 87.93 C284.34 96.35, 279.01 104.57, 270.78 112.17 C262.54 119.77, 250.37 127.96, 237.69 133.53 C225.02 139.1, 210.13 142.56, 194.73 145.61 C179.32 148.66, 161.73 151.48, 145.28 151.86 C128.84 152.23, 111.65 150.91, 96.07 147.84 C80.48 144.77, 64.65 139.27, 51.77 133.42 C38.88 127.58, 26.91 120.29, 18.75 112.77 C10.59 105.24, 5.75 96.51, 2.82 88.27 C-0.1 80.02, -1.44 71.51, 1.19 63.32 C3.82 55.12, 10.34 46.76, 18.6 39.07 C26.86 31.37, 38.03 22.76, 50.75 17.14 C63.47 11.51, 87.63 7.28, 94.93 5.33 C102.24 3.38, 93.5 4.44, 94.56 5.43" stroke="#1e1e1e" stroke-width="2" fill="none"></path></g><g transform="translate(122.98372127939717 950.6622810949988) rotate(0 92.62396240234375 35)"><text x="92.62396240234375" y="0" font-family="Virgil, Segoe UI Emoji" font-size="28px" fill="#1e1e1e" text-anchor="middle" style="white-space: pre;" direction="ltr" dominant-baseline="text-before-edge">Elasticsearch</text><text x="92.62396240234375" y="35" font-family="Virgil, Segoe UI Emoji" font-size="28px" fill="#1e1e1e" text-anchor="middle" style="white-space: pre;" direction="ltr" dominant-baseline="text-before-edge">Cluster</text></g><g stroke-linecap="round" transform="translate(577.0001220703125 904.3333129882812) rotate(0 144.33331298828125 75.66665649414062)"><path d="M196.82 5.16 C211.96 6.95, 226.12 13.15, 238.62 18.68 C251.13 24.21, 263.75 30.86, 271.84 38.33 C279.92 45.79, 284.95 54.88, 287.13 63.46 C289.31 72.04, 288.02 81.07, 284.93 89.78 C281.84 98.5, 276.86 108.21, 268.58 115.76 C260.3 123.31, 248.25 129.86, 235.27 135.07 C222.29 140.28, 206.32 144.39, 190.7 147.03 C175.09 149.67, 158.05 151.05, 141.56 150.93 C125.07 150.81, 107.24 149.29, 91.78 146.3 C76.32 143.31, 61.14 138.84, 48.81 133 C36.47 127.16, 25.6 118.84, 17.78 111.24 C9.95 103.65, 4.37 95.98, 1.86 87.43 C-0.64 78.89, -0.5 68.38, 2.73 59.95 C5.97 51.51, 12.64 43.91, 21.28 36.82 C29.91 29.74, 41.59 22.87, 54.53 17.44 C67.46 12.01, 83.39 7.06, 98.89 4.23 C114.4 1.41, 129.28 -0.33, 147.56 0.47 C165.84 1.27, 196.5 7.12, 208.58 9.04 C220.66 10.95, 221.08 10.99, 220.04 11.95 M89.57 4.6 C103.02 0.29, 122.02 0.27, 138.21 -0.16 C154.41 -0.59, 171.22 -0.68, 186.74 2.02 C202.27 4.71, 218.1 10.38, 231.37 16.03 C244.63 21.68, 257.45 28.84, 266.31 35.92 C275.17 42.99, 281.02 50.31, 284.52 58.47 C288.02 66.64, 289.29 76.22, 287.31 84.91 C285.33 93.6, 280.31 103.11, 272.66 110.62 C265.01 118.13, 253.5 124.4, 241.4 129.98 C229.29 135.57, 215.03 140.68, 200.05 144.12 C185.06 147.55, 168.1 149.94, 151.5 150.6 C134.9 151.26, 116.39 150.71, 100.45 148.06 C84.51 145.42, 69.06 140.11, 55.84 134.71 C42.63 129.31, 29.99 122.75, 21.19 115.65 C12.38 108.55, 6.29 100.46, 3.02 92.13 C-0.26 83.8, -0.7 74.01, 1.52 65.67 C3.73 57.33, 8.81 49.62, 16.31 42.11 C23.81 34.6, 34.55 26.51, 46.52 20.62 C58.49 14.73, 80.94 9.26, 88.11 6.78 C95.29 4.3, 88.31 4.83, 89.56 5.73" stroke="none" stroke-width="0" fill="#d0bfff"></path><path d="M126.89 1.35 C142.25 -0.65, 161.96 0.7, 177.87 2.58 C193.79 4.46, 208.87 8.15, 222.39 12.63 C235.91 17.12, 249.03 22.56, 259 29.49 C268.97 36.42, 277.39 45.92, 282.2 54.22 C287.01 62.52, 288.81 70.83, 287.88 79.28 C286.94 87.73, 283.14 96.86, 276.59 104.92 C270.05 112.99, 259.94 121.38, 248.61 127.68 C237.29 133.98, 223.01 138.95, 208.65 142.73 C194.28 146.5, 178.69 149.1, 162.42 150.33 C146.14 151.56, 127.22 151.96, 111 150.1 C94.78 148.24, 78.72 144.15, 65.07 139.17 C51.42 134.2, 39.01 127.2, 29.1 120.26 C19.2 113.33, 10.55 105.84, 5.65 97.56 C0.76 89.27, -1.23 79.18, -0.26 70.53 C0.71 61.88, 4.95 53.4, 11.48 45.67 C18.01 37.93, 27.64 30.49, 38.92 24.13 C50.2 17.76, 62.9 11.33, 79.16 7.46 C95.42 3.59, 125.44 2.01, 136.48 0.91 C147.52 -0.18, 145.48 -0.38, 145.39 0.87 M132.24 -0.48 C147.91 -2.38, 167.39 -0.2, 183.38 2.41 C199.37 5.02, 214.8 10.17, 228.17 15.18 C241.53 20.19, 254.29 25.41, 263.56 32.47 C272.83 39.53, 279.89 49.12, 283.79 57.52 C287.7 65.93, 288.36 74.62, 286.99 82.89 C285.62 91.17, 282.16 99.19, 275.55 107.17 C268.93 115.15, 259.15 124.36, 247.29 130.8 C235.42 137.24, 219.59 142.68, 204.37 145.82 C189.15 148.95, 172.4 149, 155.97 149.61 C139.53 150.23, 121.69 151.56, 105.74 149.52 C89.79 147.47, 73.67 142.63, 60.27 137.32 C46.87 132.01, 34.47 124.84, 25.35 117.66 C16.22 110.48, 9.64 102.51, 5.5 94.22 C1.36 85.93, -0.95 76.3, 0.5 67.92 C1.95 59.54, 7.19 51.8, 14.2 43.93 C21.2 36.06, 31.09 27.02, 42.53 20.72 C53.96 14.41, 68.02 9.49, 82.8 6.08 C97.59 2.67, 122.71 0.9, 131.23 0.25 C139.75 -0.4, 133.63 0.68, 133.93 2.17" stroke="#1e1e1e" stroke-width="2" fill="none"></path></g><g transform="translate(671.4343896143581 944.9955635657019) rotate(0 49.83998107910156 35)"><text x="49.83998107910156" y="0" font-family="Virgil, Segoe UI Emoji" font-size="28px" fill="#1e1e1e" text-anchor="middle" style="white-space: pre;" direction="ltr" dominant-baseline="text-before-edge">Kibana</text><text x="49.83998107910156" y="35" font-family="Virgil, Segoe UI Emoji" font-size="28px" fill="#1e1e1e" text-anchor="middle" style="white-space: pre;" direction="ltr" dominant-baseline="text-before-edge">Cluster</text></g><g stroke-linecap="round" transform="translate(159.3333740234375 10) rotate(0 287.00006103515625 56.5)"><path d="M321.49 0.08 C346.23 -0.3, 371.93 1.68, 395.58 3.5 C419.22 5.32, 442.76 7.71, 463.35 11.01 C483.95 14.32, 503.61 18.93, 519.13 23.32 C534.66 27.72, 547.43 32.52, 556.49 37.38 C565.55 42.25, 571.26 47.65, 573.48 52.52 C575.71 57.39, 574.76 61.66, 569.82 66.59 C564.88 71.52, 555.57 77.47, 543.86 82.1 C532.15 86.72, 516.66 90.76, 499.56 94.34 C482.46 97.93, 462.79 100.79, 441.26 103.59 C419.73 106.4, 395.25 109.51, 370.37 111.19 C345.5 112.86, 317.82 113.71, 292.02 113.66 C266.21 113.6, 240.37 112.13, 215.54 110.84 C190.71 109.56, 165.32 108.49, 143.04 105.95 C120.76 103.4, 99.85 99.27, 81.88 95.59 C63.91 91.92, 47.76 88.42, 35.21 83.87 C22.67 79.33, 12.36 73.31, 6.61 68.32 C0.86 63.34, -0.53 58.81, 0.71 53.96 C1.95 49.11, 5.84 44.21, 14.03 39.22 C22.21 34.22, 35.31 28.26, 49.84 23.97 C64.37 19.69, 81.5 16.75, 101.22 13.49 C120.94 10.24, 144.56 6.54, 168.15 4.43 C191.74 2.32, 215.41 1.49, 242.75 0.82 C270.09 0.15, 315.58 0.04, 332.18 0.43 C348.78 0.81, 343.14 2.1, 342.34 3.14 M392.67 2.5 C416.94 3.21, 439.59 6.82, 459.96 10.24 C480.33 13.67, 499.17 18.67, 514.9 23.06 C530.64 27.45, 544.56 32.08, 554.39 36.57 C564.21 41.07, 571.15 45.34, 573.84 50.04 C576.53 54.74, 575.04 59.84, 570.52 64.8 C566.01 69.75, 557.85 75.07, 546.75 79.76 C535.65 84.45, 520.8 89.08, 503.94 92.93 C487.07 96.77, 467.22 99.98, 445.58 102.84 C423.95 105.7, 398.93 108.43, 374.12 110.08 C349.31 111.73, 322.57 112.61, 296.7 112.74 C270.83 112.86, 243.78 112.16, 218.87 110.83 C193.97 109.5, 169.88 107.11, 147.28 104.74 C124.69 102.36, 101.56 99.77, 83.32 96.6 C65.07 93.42, 50.57 90.16, 37.81 85.68 C25.05 81.21, 12.87 74.8, 6.78 69.76 C0.7 64.71, 0.03 60.64, 1.29 55.41 C2.55 50.18, 6.57 43.3, 14.35 38.38 C22.13 33.46, 33.98 29.96, 47.99 25.88 C62.01 21.81, 79.37 17.14, 98.43 13.95 C117.48 10.75, 139.2 9.07, 162.32 6.72 C185.45 4.36, 211.6 0.99, 237.18 -0.18 C262.75 -1.35, 289.86 -1, 315.78 -0.3 C341.7 0.4, 380.57 3.04, 392.71 4.02 C404.85 5.01, 390.23 4.59, 388.61 5.59" stroke="none" stroke-width="0" fill="#ffc9c9"></path><path d="M290.38 0.38 C315.23 -0.33, 344.16 1.28, 369.1 2.5 C394.03 3.72, 418.24 5.02, 439.96 7.71 C461.68 10.4, 481.99 14.82, 499.42 18.66 C516.84 22.51, 533.05 26.17, 544.51 30.77 C555.97 35.37, 563.52 41.34, 568.18 46.28 C572.84 51.22, 574.57 55.55, 572.45 60.43 C570.34 65.32, 564.47 70.76, 555.48 75.59 C546.5 80.42, 533.65 85.18, 518.54 89.4 C503.44 93.61, 484.89 97.68, 464.85 100.9 C444.81 104.12, 422.09 106.68, 398.3 108.72 C374.51 110.77, 347.93 112.56, 322.12 113.15 C296.31 113.74, 268.83 113.12, 243.44 112.27 C218.05 111.41, 193.08 110.01, 169.77 108.01 C146.46 106.02, 123.41 103.46, 103.58 100.27 C83.74 97.08, 65.47 93.31, 50.74 88.88 C36.01 84.45, 23.73 78.41, 15.19 73.68 C6.65 68.94, 0.75 65.24, -0.5 60.47 C-1.76 55.71, 1.92 50.28, 7.66 45.07 C13.4 39.86, 21.91 33.95, 33.94 29.2 C45.98 24.44, 61.97 19.96, 79.85 16.54 C97.74 13.12, 118.97 11.25, 141.23 8.68 C163.49 6.1, 187.42 2.67, 213.43 1.11 C239.44 -0.46, 282.06 -0.77, 297.29 -0.73 C312.51 -0.69, 304.73 0.37, 304.78 1.34 M286.8 1.15 C311.33 0.53, 341.87 1.87, 366.78 3.05 C391.69 4.23, 414.73 5.52, 436.27 8.21 C457.81 10.9, 478.29 15.67, 496 19.19 C513.71 22.71, 530.42 25, 542.54 29.35 C554.67 33.7, 563.66 39.97, 568.76 45.3 C573.85 50.63, 575.08 56.22, 573.12 61.34 C571.15 66.45, 565.55 71.14, 556.96 76 C548.37 80.86, 536.36 86.3, 521.58 90.51 C506.81 94.72, 488.35 98.47, 468.29 101.28 C448.24 104.09, 425.25 105.58, 401.26 107.37 C377.26 109.16, 350.07 111.24, 324.32 112.01 C298.56 112.78, 272.31 112.64, 246.73 112 C221.14 111.35, 194.66 110.02, 170.82 108.13 C146.97 106.24, 123.67 104.07, 103.66 100.64 C83.65 97.22, 65.41 91.83, 50.76 87.57 C36.12 83.32, 24.19 79.55, 15.78 75.12 C7.37 70.69, 1.81 66.05, 0.32 60.99 C-1.17 55.92, 1.45 50.05, 6.84 44.73 C12.23 39.41, 20.63 33.49, 32.67 29.06 C44.71 24.64, 61.27 21.84, 79.1 18.18 C96.94 14.52, 117.94 9.96, 139.67 7.09 C161.4 4.22, 184.65 1.9, 209.46 0.95 C234.28 0.01, 275.62 1.42, 288.57 1.44 C301.52 1.45, 287.25 0.46, 287.14 1.06" stroke="#1e1e1e" stroke-width="2" fill="none"></path></g><g transform="translate(283.9938280971427 49.048466862960026) rotate(0 162.39991760253906 17.5)"><text x="162.39991760253906" y="0" font-family="Virgil, Segoe UI Emoji" font-size="28px" fill="#1e1e1e" text-anchor="middle" style="white-space: pre;" direction="ltr" dominant-baseline="text-before-edge">Applications / Functions</text></g><g stroke-linecap="round"><g transform="translate(229.35060101916986 109.78858496641828) rotate(0 -6.246482044220215 223.77237926972055)"><path d="M0.7 -0.7 C-1.2 73.94, -9.47 373.68, -11.82 448.36" stroke="#1e1e1e" stroke-width="2.5" fill="none" stroke-dasharray="8 10"></path></g><g transform="translate(229.35060101916986 109.78858496641828) rotate(0 -6.246482044220215 223.77237926972055)"><path d="M-21.25 419.88 C-19.74 428.61, -14.68 433.62, -11.82 448.36" stroke="#1e1e1e" stroke-width="2.5" fill="none"></path></g><g transform="translate(229.35060101916986 109.78858496641828) rotate(0 -6.246482044220215 223.77237926972055)"><path d="M-0.74 420.48 C-4.75 429.17, -5.2 434.02, -11.82 448.36" stroke="#1e1e1e" stroke-width="2.5" fill="none"></path></g></g><mask></mask><g stroke-linecap="round"><g transform="translate(456.4790944512059 124.00580879652205) rotate(0 -0.12658422368718902 110.66376735466866)"><path d="M-0.63 1.16 C-0.68 37.71, -0.14 183.33, -0.09 220.15" stroke="#1e1e1e" stroke-width="2.5" fill="none" stroke-dasharray="8 10"></path></g><g transform="translate(456.4790944512059 124.00580879652205) rotate(0 -0.12658422368718902 110.66376735466866)"><path d="M-10.42 191.99 C-5 201.28, -5.61 209.89, -0.09 220.15" stroke="#1e1e1e" stroke-width="2.5" fill="none"></path></g><g transform="translate(456.4790944512059 124.00580879652205) rotate(0 -0.12658422368718902 110.66376735466866)"><path d="M10.1 191.93 C8.99 201.13, 1.85 209.76, -0.09 220.15" stroke="#1e1e1e" stroke-width="2.5" fill="none"></path></g></g><mask></mask><g stroke-linecap="round"><g transform="translate(692.752758237962 100.46815987088507) rotate(0 18.137123568938016 226.43259181748715)"><path d="M0.47 -0.96 C6.3 74.65, 29.19 377.75, 35.32 453.29" stroke="#1e1e1e" stroke-width="2.5" fill="none" stroke-dasharray="8 10"></path></g><g transform="translate(692.752758237962 100.46815987088507) rotate(0 18.137123568938016 226.43259181748715)"><path d="M22.9 425.98 C25.32 433.35, 31.72 445.58, 35.32 453.29" stroke="#1e1e1e" stroke-width="2.5" fill="none"></path></g><g transform="translate(692.752758237962 100.46815987088507) rotate(0 18.137123568938016 226.43259181748715)"><path d="M43.36 424.39 C39.03 432.36, 38.68 445.12, 35.32 453.29" stroke="#1e1e1e" stroke-width="2.5" fill="none"></path></g></g><mask></mask></svg>